<?xml version="1.0" standalone="no"?>
<!DOCTYPE svg PUBLIC "-//W3C//DTD SVG 20010904//EN"
 "http://www.w3.org/TR/2001/REC-SVG-20010904/DTD/svg10.dtd">
<svg version="1.0" xmlns="http://www.w3.org/2000/svg"
 width="400.000000pt" height="400.000000pt" viewBox="0 0 400.000000 400.000000"
 preserveAspectRatio="xMidYMid meet">
<metadata>
Created by potrace 1.14, written by Peter Selinger 2001-2017
</metadata>
<g transform="translate(0.000000,400.000000) scale(0.100000,-0.100000)"
fill="#000000" stroke="none">
<path d="M1363 3965 c-39 -18 -99 -53 -133 -76 -74 -53 -132 -89 -142 -89 -5
0 -8 11 -8 25 0 34 -19 32 -26 -4 -5 -23 -20 -36 -77 -67 -44 -24 -102 -69
-150 -116 -45 -44 -91 -79 -106 -83 -16 -3 -42 -20 -59 -38 -30 -31 -71 -109
-72 -135 0 -6 -17 -28 -38 -46 -70 -64 -104 -159 -87 -241 5 -21 -3 -57 -24
-119 -17 -49 -31 -101 -31 -116 0 -14 -6 -34 -13 -44 -10 -14 -11 -32 -4 -75
5 -31 8 -83 8 -117 -2 -53 1 -63 24 -87 l27 -26 -26 -7 c-33 -8 -34 -36 -2
-61 18 -14 23 -26 19 -46 -4 -18 2 -33 18 -49 22 -22 24 -32 22 -112 -1 -48
-4 -94 -7 -101 -3 -8 4 -24 14 -38 10 -13 22 -37 25 -53 4 -16 13 -42 20 -59
7 -16 18 -66 24 -110 17 -113 30 -150 54 -161 14 -6 23 -20 25 -39 3 -27 2
-28 -10 -12 -12 16 -14 16 -25 -2 -10 -16 -8 -26 17 -60 23 -31 33 -62 45
-133 8 -51 15 -96 15 -101 0 -4 5 -6 12 -5 8 2 15 -19 19 -62 13 -124 73 -314
153 -486 60 -128 111 -203 139 -204 9 0 17 -4 17 -10 0 -5 15 -27 33 -47 18
-21 45 -57 61 -80 16 -23 37 -45 47 -48 10 -3 34 -28 54 -56 20 -27 44 -49 54
-49 9 0 32 -11 51 -24 20 -13 56 -31 81 -39 57 -19 129 -57 129 -66 0 -4 -11
-14 -25 -21 -31 -17 -47 -41 -68 -104 -21 -61 -21 -66 -2 -66 8 0 15 7 15 15
0 8 5 15 11 15 6 0 9 -6 6 -13 -3 -7 3 -13 12 -13 10 0 18 9 19 21 1 16 -1 17
-8 5 -5 -8 -10 -13 -10 -10 -13 76 -4 102 40 125 34 18 35 17 65 -74 15 -43
29 -67 40 -69 12 -3 15 1 11 15 -19 66 -19 71 13 87 41 22 54 20 46 -4 -7 -23
-2 -25 28 -9 22 12 22 12 3 -10 -27 -29 -12 -39 27 -16 32 18 32 18 15 -2 -18
-20 -24 -43 -11 -43 3 0 22 12 41 27 30 23 34 24 28 7 -21 -54 0 -54 62 1 56
51 70 57 46 20 -29 -44 -10 -50 34 -11 28 26 47 36 60 32 10 -4 33 1 51 10 18
9 42 14 53 11 13 -4 31 2 47 14 17 14 33 18 49 14 20 -5 37 6 99 66 40 39 76
70 78 67 3 -3 -6 -26 -20 -51 -31 -54 -16 -77 22 -33 12 15 23 22 23 17 0 -24
31 -8 67 34 23 28 40 41 44 33 4 -6 16 7 30 33 l22 44 22 -90 c27 -110 44
-151 79 -192 l26 -31 -26 -21 -27 -21 30 0 c25 0 38 10 70 52 64 84 73 101 72
128 0 23 -1 24 -12 6 -35 -54 -49 -67 -63 -56 -7 7 -28 12 -46 13 -32 2 -34 5
-56 71 l-23 69 22 23 c31 33 76 44 140 32 70 -12 126 -33 167 -64 28 -22 32
-30 32 -74 0 -27 -11 -83 -24 -125 -22 -69 -23 -75 -6 -75 13 0 22 15 34 58 9
32 16 68 16 79 0 37 54 59 116 47 30 -5 34 -9 28 -28 -6 -21 -6 -21 10 -1 17
23 18 22 18 -62 0 -29 -3 -61 -7 -72 -5 -15 -2 -21 9 -21 13 0 16 13 17 63 1
34 1 68 0 74 -4 27 21 11 94 -62 44 -43 85 -75 96 -75 20 0 20 1 -2 32 -39 54
-125 133 -177 161 -51 28 -103 35 -159 23 -30 -7 -33 -6 -33 17 0 32 -9 57
-22 57 -5 0 -30 16 -55 35 -57 43 -110 58 -190 53 -45 -3 -71 -10 -94 -27 -17
-12 -32 -21 -35 -19 -2 3 -9 41 -15 86 -13 95 -15 89 111 298 38 64 70 118 70
121 0 2 12 29 26 60 20 42 23 57 14 63 -8 5 -8 10 -2 14 26 16 71 116 77 172
4 32 11 74 17 92 5 18 11 47 13 65 2 17 10 75 19 127 9 52 16 123 16 158 0 62
0 62 29 62 43 0 83 40 129 127 69 135 87 208 87 363 0 115 -4 146 -24 210 -28
89 -42 107 -99 132 l-43 19 21 26 c26 33 28 144 4 192 -9 18 -14 44 -11 59 27
140 37 196 43 250 5 52 4 62 -9 62 -8 0 -24 -12 -34 -26 l-20 -26 -10 28 c-6
16 -15 61 -21 99 -17 125 -81 347 -82 284 0 -12 -2 -12 -10 1 -13 21 -12 26 6
45 13 13 14 18 3 31 -12 14 -14 14 -26 -2 -7 -10 -13 -14 -13 -8 0 5 -5 1 -11
-8 -5 -10 -15 -18 -22 -18 -14 0 -68 97 -86 153 -7 20 -18 37 -26 37 -7 0 -16
12 -19 26 -5 20 -11 24 -29 19 -12 -4 -27 -13 -33 -21 -14 -18 -24 -18 -24 0
0 22 -61 50 -72 34 -6 -10 -16 -5 -36 19 -15 17 -40 35 -55 38 -15 4 -40 23
-54 42 -14 19 -32 32 -39 29 -7 -3 -18 2 -24 10 -7 8 -21 14 -32 14 -11 0 -43
21 -71 46 -37 33 -57 44 -74 41 -13 -2 -28 2 -34 9 -17 20 -109 19 -109 -1 0
-19 -10 -19 -35 -1 -15 10 -74 14 -252 15 -141 1 -233 -2 -233 -8 0 -5 -15
-15 -32 -22 -18 -7 -36 -14 -40 -17 -5 -2 -8 5 -8 17 0 11 -3 22 -7 24 -5 3
-40 -10 -80 -28z m-643 -459 c0 -2 -16 -16 -36 -31 -31 -24 -35 -25 -25 -7 14
26 61 55 61 38z m-204 -295 c-22 -44 -42 -78 -44 -76 -10 9 69 155 83 155 1 0
-16 -36 -39 -79z m1134 -123 c1 -22 1 -23 15 -4 11 14 15 16 15 5 0 -24 45
-39 69 -23 14 10 20 11 23 2 3 -7 9 -8 19 -3 18 12 62 6 71 -8 5 -8 13 -6 26
6 18 16 20 17 26 1 5 -12 9 -14 20 -5 10 9 15 8 19 -4 4 -8 13 -12 21 -9 30
12 126 9 131 -3 3 -9 11 -10 30 -3 34 13 35 13 35 -6 0 -10 5 -14 15 -10 8 3
23 9 32 13 13 5 15 3 10 -11 -9 -24 1 -40 17 -27 10 9 11 1 5 -37 -12 -71 -12
-70 27 -69 28 1 38 6 45 25 7 19 12 22 23 13 7 -6 20 -9 29 -5 10 3 21 -4 32
-19 9 -14 42 -41 74 -62 53 -33 61 -42 81 -98 13 -34 42 -90 65 -123 23 -34
48 -83 55 -109 8 -30 20 -50 31 -52 16 -5 33 -55 34 -103 0 -8 7 -15 15 -15
28 0 30 -33 5 -87 -25 -53 -34 -138 -15 -138 6 0 10 13 10 28 0 84 160 303
210 287 14 -5 28 -1 42 12 14 12 22 14 25 7 2 -7 13 -10 24 -7 30 8 85 -50
110 -116 29 -77 37 -240 16 -338 -27 -125 -111 -284 -157 -296 -26 -7 -83 58
-104 119 -15 44 -46 87 -46 64 0 -7 -7 -9 -15 -6 -22 8 -30 -20 -15 -49 8 -15
10 -34 5 -52 -4 -15 -10 -63 -12 -105 -2 -43 -9 -78 -14 -78 -5 0 -9 -15 -9
-34 0 -21 -6 -36 -15 -40 -9 -3 -15 -19 -15 -41 0 -19 -4 -35 -10 -35 -6 0
-10 -32 -10 -75 0 -58 4 -77 15 -81 8 -4 15 -14 15 -23 0 -14 -2 -14 -10 -1
-8 13 -10 12 -15 -1 -8 -22 -102 69 -96 94 2 9 8 17 13 17 7 0 6 5 -1 13 -6 8
-8 17 -5 20 11 11 -57 45 -124 63 l-65 18 -15 -22 c-10 -15 -25 -22 -48 -22
-35 0 -48 -22 -20 -33 7 -3 15 -14 18 -24 4 -16 -4 -18 -96 -21 -56 -2 -114
-8 -129 -14 -22 -9 -31 -8 -37 1 -10 17 -83 -4 -106 -31 -21 -22 -32 -23 -36
-2 -2 14 -8 13 -34 -10 -36 -30 -46 -33 -38 -11 8 21 -8 19 -32 -3 -11 -10
-25 -17 -33 -14 -7 2 -33 -10 -57 -27 -24 -18 -48 -30 -53 -27 -5 3 -12 22
-15 41 -11 58 -27 41 -20 -22 5 -42 4 -54 -5 -49 -6 4 -22 1 -35 -7 -15 -10
-28 -12 -37 -6 -8 5 -10 9 -6 9 5 0 5 5 1 11 -4 7 -22 -4 -48 -28 -22 -21 -56
-49 -74 -61 -28 -20 -33 -21 -38 -7 -3 8 -17 15 -31 15 -54 0 -128 35 -179 85
-86 83 -88 138 -14 284 39 77 40 81 40 183 0 76 -4 109 -13 117 -23 18 -27 1
-21 -80 7 -75 5 -81 -41 -206 -41 -112 -47 -138 -48 -208 -1 -122 43 -190 138
-216 l36 -10 -33 -39 c-19 -22 -39 -36 -49 -34 -10 3 -20 -6 -28 -23 -10 -22
-14 -24 -22 -12 -8 11 -16 7 -43 -24 -27 -30 -40 -37 -70 -37 -41 0 -48 -17
-11 -26 32 -8 32 -26 0 -60 -19 -20 -25 -23 -25 -10 0 9 -4 16 -10 16 -5 0
-10 -4 -10 -10 0 -5 -12 2 -26 15 -25 23 -32 27 -50 24 -11 -1 -24 24 -24 46
0 11 -7 34 -16 50 -9 17 -19 41 -23 55 -5 15 -15 25 -27 25 -13 0 -20 8 -22
28 -2 15 -9 27 -17 27 -7 0 -16 11 -19 25 -4 14 -11 25 -16 25 -6 0 -10 8 -10
18 0 9 -8 31 -18 47 -14 25 -17 53 -15 159 0 78 -3 124 -8 119 -12 -12 -28
-111 -30 -178 -2 -81 -16 -7 -18 93 -1 81 -1 83 27 93 25 9 25 11 9 21 -24 13
-57 -15 -58 -51 l-1 -26 -8 29 c-5 16 -12 63 -16 105 -3 42 -8 79 -10 83 -10
15 -3 621 7 728 7 63 11 126 11 140 -1 31 43 135 69 161 10 10 19 28 19 39 0
11 6 20 14 20 7 0 19 7 26 15 8 9 21 13 32 9 10 -3 26 0 35 8 15 12 16 8 11
-34 -8 -65 -30 -98 -69 -98 -45 0 -31 -24 16 -28 21 -2 42 1 48 7 6 6 20 11
30 11 11 0 43 24 73 54 42 42 54 61 54 85 0 40 27 42 36 4 3 -16 8 -35 10 -44
7 -27 -13 -100 -36 -131 -20 -27 -20 -28 -1 -28 27 0 79 63 87 106 4 21 2 66
-5 101 -13 73 0 107 47 116 15 3 46 22 69 41 28 25 51 36 73 36 36 0 100 55
100 85 0 13 5 15 18 10 46 -20 77 -16 132 18 67 42 70 43 70 15z m827 -1714
c-3 -3 -12 -4 -19 -1 -8 3 -5 6 6 6 11 1 17 -2 13 -5z m-13 -79 c3 -8 14 -15
25 -15 29 0 51 -11 51 -25 0 -6 15 -16 32 -21 21 -6 34 -17 36 -29 2 -11 10
-25 19 -32 12 -9 12 -16 3 -33 -14 -26 -4 -83 11 -59 7 12 9 11 9 -2 0 -9 -7
-22 -15 -29 -8 -7 -15 -26 -15 -42 0 -16 -16 -63 -36 -105 -20 -41 -37 -88
-38 -103 -1 -16 -5 -32 -9 -36 -4 -4 -7 -19 -7 -33 0 -14 -10 -42 -22 -61 -11
-19 -22 -45 -24 -57 -3 -27 -56 -106 -105 -155 -20 -21 -42 -51 -49 -67 -10
-26 -40 -46 -64 -42 -5 1 -16 -5 -25 -13 -10 -9 -60 -30 -112 -49 -60 -21 -93
-37 -91 -46 2 -9 -6 -11 -28 -6 -18 4 -30 3 -30 -4 0 -6 -22 -10 -55 -9 -30 1
-55 6 -55 12 0 6 -5 5 -12 -2 -14 -14 -52 -16 -43 -2 3 6 1 10 -4 10 -6 0 -11
-4 -11 -10 0 -19 -32 -10 -37 10 -7 25 -23 26 -23 3 -1 -17 -1 -17 -14 0 -7 9
-23 17 -35 17 -19 0 -59 17 -185 78 -5 3 -6 0 -2 -7 4 -6 5 -11 2 -11 -3 0
-17 18 -31 40 -25 40 -51 46 -40 9 16 -48 -18 -10 -71 81 -33 55 -62 100 -66
100 -14 0 -8 -25 16 -67 18 -31 21 -43 11 -47 -8 -3 -19 12 -30 40 -11 29 -22
43 -30 40 -8 -3 -16 6 -20 21 -3 14 -13 32 -21 40 -8 9 -18 29 -21 45 -3 16
-11 27 -17 25 -6 -2 -16 2 -23 9 -11 10 -10 25 1 78 7 36 11 67 9 70 -2 2 8
16 22 31 15 14 28 25 29 23 2 -2 10 -21 19 -44 43 -111 160 -234 277 -292 53
-26 61 -27 205 -26 194 2 399 36 497 83 107 51 183 113 212 174 35 73 50 202
42 361 -5 103 -10 137 -26 163 -15 25 -16 33 -6 33 8 0 16 -7 20 -15z m-320
-34 c-10 -9 -176 -97 -312 -166 -129 -65 -502 -203 -502 -186 0 13 26 32 33
25 4 -4 18 1 32 10 13 9 28 17 32 17 5 0 15 7 24 15 9 8 23 12 31 9 8 -3 23 4
33 15 14 15 20 17 26 8 6 -9 14 -7 32 10 15 14 36 22 60 22 23 0 37 5 37 13 0
7 30 21 66 31 37 11 89 34 115 52 27 18 61 35 77 37 22 3 20 4 -10 6 -56 2
-44 27 17 37 74 11 116 24 160 46 28 15 52 22 54 16 2 -5 -1 -13 -5 -17z m274
1 c11 -11 22 -38 26 -62 6 -36 4 -46 -11 -54 -62 -38 -289 -152 -343 -172 -55
-21 -114 -52 -285 -149 -11 -6 -36 -21 -55 -33 -69 -44 -142 -64 -255 -72 -60
-4 -117 -11 -127 -15 -16 -6 -31 13 -101 127 -17 27 -17 28 5 27 36 -1 133 26
278 79 214 79 234 88 445 200 110 58 220 114 245 123 62 25 154 25 178 1z
m-545 -92 c20 -1 -44 -32 -128 -62 l-80 -28 35 30 c19 16 40 28 46 26 6 -2 28
6 50 19 21 13 45 21 52 19 8 -2 19 -4 25 -4z m884 -22 c-3 -8 -6 -5 -6 6 -1
11 2 17 5 13 3 -3 4 -12 1 -19z m-307 -134 c0 -61 -7 -135 -16 -176 -14 -62
-23 -78 -63 -117 -57 -57 -189 -130 -201 -110 -20 32 -32 136 -21 192 12 66
20 84 73 153 21 28 38 55 38 60 0 12 53 44 72 44 7 0 33 14 57 30 24 17 48 30
53 30 4 0 8 -47 8 -106z m-1035 46 c-3 -5 -10 -10 -16 -10 -5 0 -9 5 -9 10 0
6 7 10 16 10 8 0 12 -4 9 -10z m1115 -620 c-6 -11 -13 -20 -16 -20 -2 0 0 9 6
20 6 11 13 20 16 20 2 0 0 -9 -6 -20z m-1161 -55 c0 -5 -6 -1 -14 9 -8 11 -15
24 -15 30 0 5 7 1 15 -10 8 -10 14 -23 14 -29z m1165 -60 c-31 -41 -59 -74
-61 -71 -3 2 22 44 54 92 35 54 59 81 61 71 2 -9 -22 -50 -54 -92z m-74 -27
c0 -7 -16 -31 -36 -53 -35 -39 -32 -28 12 40 18 28 24 31 24 13z m-842 -145
c-6 -7 -14 -10 -19 -7 -15 9 -10 20 10 20 15 0 17 -3 9 -13z m21 -34 c-25 -16
-32 -9 -13 12 12 13 20 16 22 9 3 -7 -2 -16 -9 -21z m261 -33 c0 -3 -4 -8 -10
-11 -5 -3 -10 -1 -10 4 0 6 5 11 10 11 6 0 10 -2 10 -4z m-433 -38 c-3 -8 -6
-5 -6 6 -1 11 2 17 5 13 3 -3 4 -12 1 -19z"/>
<path d="M1787 2516 c-32 -14 -68 -33 -79 -43 -23 -21 -52 -72 -44 -80 2 -3
12 9 20 25 26 50 113 86 218 90 77 4 94 1 144 -22 31 -14 79 -42 108 -62 l51
-36 -57 55 c-101 97 -235 124 -361 73z"/>
<path d="M2960 2303 c-29 -27 -127 -233 -111 -233 4 0 8 -14 9 -32 0 -17 8
-38 16 -47 29 -28 41 2 43 103 1 66 6 104 18 127 43 85 80 91 127 24 36 -51
45 -52 28 -1 -12 37 -61 86 -86 86 -7 0 -27 -12 -44 -27z m-60 -268 c0 -8 -4
-15 -9 -15 -5 0 -11 7 -15 15 -3 9 0 15 9 15 8 0 15 -7 15 -15z"/>
<path d="M833 2289 c-18 -11 -51 -43 -73 -71 -40 -50 -40 -51 -38 -132 l2 -81
3 70 c4 63 8 74 44 122 45 60 82 83 134 83 48 0 70 -13 105 -62 35 -48 38 -43
10 13 -38 74 -122 100 -187 58z"/>
<path d="M2680 1872 c0 -5 9 -17 20 -27 26 -23 50 -110 50 -178 0 -31 5 -59
10 -62 16 -10 12 112 -6 176 -9 32 -25 67 -36 78 -19 22 -38 28 -38 13z"/>
<path d="M2298 1801 c-50 -91 -151 -151 -255 -151 -35 0 -43 3 -43 19 0 10 -6
34 -14 52 -33 79 -87 115 -100 67 -9 -36 -7 -78 4 -78 6 0 10 14 10 30 0 42
27 39 46 -5 16 -39 18 -59 5 -51 -5 4 -11 1 -13 -6 -3 -9 -12 -9 -38 0 -39 14
-51 8 -24 -13 34 -26 122 -47 184 -43 l59 3 -44 -45 c-63 -64 -56 -71 11 -11
109 96 225 140 373 142 55 0 62 2 41 11 -29 12 -172 4 -213 -11 -15 -6 -27 -9
-27 -7 0 2 16 27 35 56 19 29 35 61 35 71 0 10 -1 19 -2 19 -2 0 -15 -22 -30
-49z"/>
<path d="M1032 1655 c-7 -14 -12 -59 -12 -100 0 -67 2 -75 19 -75 11 0 23 11
30 28 12 31 21 126 14 153 -8 27 -38 23 -51 -6z m38 -41 c0 -36 -15 -74 -28
-74 -8 0 -6 53 4 98 7 34 24 16 24 -24z"/>
<path d="M1022 1444 c-74 -20 -202 -74 -202 -86 0 -11 21 -5 104 28 32 13 94
31 137 41 50 10 75 20 67 25 -18 11 -44 9 -106 -8z"/>
<path d="M1519 1179 c-19 -16 -20 -19 -6 -15 11 3 30 9 44 12 18 5 21 9 11 15
-19 12 -23 11 -49 -12z"/>
<path d="M2583 1120 c0 -30 2 -43 4 -27 2 15 2 39 0 55 -2 15 -4 2 -4 -28z"/>
<path d="M2446 664 c-30 -54 -32 -61 -10 -43 20 17 57 89 45 89 -5 0 -21 -21
-35 -46z"/>
<path d="M1 2905 c0 -95 3 -115 11 -95 14 32 14 158 0 190 -8 20 -11 0 -11
-95z"/>
<path d="M3091 137 c-13 -21 -12 -21 5 -5 10 10 16 20 13 22 -3 3 -11 -5 -18
-17z"/>
<path d="M2798 50 c-38 -40 -43 -50 -28 -50 12 0 26 13 36 33 9 17 23 40 32
50 33 38 4 14 -40 -33z"/>
<path d="M3060 80 c0 -5 5 -10 11 -10 5 0 7 5 4 10 -3 6 -8 10 -11 10 -2 0 -4
-4 -4 -10z"/>
<path d="M3120 75 c-7 -8 -9 -15 -4 -15 5 0 3 -4 -5 -9 -9 -6 -10 -11 -2 -15
10 -6 13 0 10 20 0 4 5 10 12 15 8 4 11 11 8 14 -4 3 -12 -1 -19 -10z"/>
<path d="M3154 54 c-4 -10 -9 -22 -11 -26 -2 -5 0 -8 5 -8 10 0 24 41 17 48
-3 3 -8 -4 -11 -14z"/>
<path d="M2862 35 c-25 -28 -27 -35 -12 -35 6 0 14 8 17 18 4 9 11 20 17 24 6
4 8 9 5 12 -3 3 -15 -5 -27 -19z"/>
<path d="M3231 43 c-1 -6 -4 -20 -7 -30 -5 -17 -5 -17 6 0 6 10 9 23 6 30 -3
9 -5 9 -5 0z"/>
</g>
</svg>
